<svg width="24" height="31" viewBox="0 0 24 31" fill="none" xmlns="http://www.w3.org/2000/svg">
<g clip-path="url(#clip0_1028_6)">
<path d="M11.9999 18.2499C15.3089 18.2499 17.9999 15.5589 17.9999 12.2499C17.9999 8.94097 15.3089 6.25 11.9999 6.25C8.69097 6.25 6 8.94097 6 12.2499C6 15.5589 8.69097 18.2499 11.9999 18.2499ZM11.9999 9.24997C13.6544 9.24997 14.9999 10.5955 14.9999 12.2499C14.9999 13.9044 13.6544 15.2499 11.9999 15.2499C10.3455 15.2499 8.99997 13.9044 8.99997 12.2499C8.99997 10.5955 10.3455 9.24997 11.9999 9.24997Z" fill="#8EC2F2"/>
<path d="M11.13 29.7212C11.3839 29.9025 11.688 30 12 30C12.312 30 12.6161 29.9025 12.87 29.7212C13.326 29.3987 24.0434 21.6602 23.9999 12.0001C23.9999 5.38354 18.6164 0 12 0C5.38357 0 0.000132055 5.38354 0.000132055 11.9926C-0.0433675 21.6602 10.674 29.3987 11.13 29.7212ZM12 3.00002C16.9634 3.00002 20.9999 7.03656 20.9999 12.0076C21.0314 18.6647 14.418 24.6422 12 26.6027C9.58353 24.6407 2.9686 18.6616 3.0001 12.0001C3.0001 7.03656 7.03655 3.00002 12 3.00002Z" fill="#8EC2F2"/>
</g>
<defs>
<clipPath id="clip0_1028_6">
<rect width="24" height="29.9997" fill="white" transform="translate(0 0.25)"/>
</clipPath>
</defs>
</svg>
